<?xml version="1.0" encoding="UTF-8" standalone="no"?>
<!-- Created with Inkscape (http://www.inkscape.org/) -->

<svg
   xmlns:dc="http://purl.org/dc/elements/1.1/"
   xmlns:cc="http://creativecommons.org/ns#"
   xmlns:rdf="http://www.w3.org/1999/02/22-rdf-syntax-ns#"
   xmlns:svg="http://www.w3.org/2000/svg"
   xmlns="http://www.w3.org/2000/svg"
   xmlns:sodipodi="http://sodipodi.sourceforge.net/DTD/sodipodi-0.dtd"
   xmlns:inkscape="http://www.inkscape.org/namespaces/inkscape"
   id="svg3336"
   version="1.1"
   inkscape:version="0.91 r13725"
   width="1120"
   height="1120"
   viewBox="0 0 1120 1120"
   sodipodi:docname="空間.svg">
  <metadata
     id="metadata3342">
    <rdf:RDF>
      <cc:Work
         rdf:about="">
        <dc:format>image/svg+xml</dc:format>
        <dc:type
           rdf:resource="http://purl.org/dc/dcmitype/StillImage" />
        <dc:title />
      </cc:Work>
    </rdf:RDF>
  </metadata>
  <defs
     id="defs3340" />
  <sodipodi:namedview
     pagecolor="#ffffff"
     bordercolor="#666666"
     borderopacity="1"
     objecttolerance="10"
     gridtolerance="10"
     guidetolerance="10"
     inkscape:pageopacity="0"
     inkscape:pageshadow="2"
     inkscape:window-width="1366"
     inkscape:window-height="705"
     id="namedview3338"
     showgrid="false"
     showguides="true"
     inkscape:zoom="0.5"
     inkscape:cx="47.843946"
     inkscape:cy="500.48108"
     inkscape:window-x="-8"
     inkscape:window-y="-8"
     inkscape:window-maximized="1"
     inkscape:current-layer="g4518" />
  <g
     id="g4518">
    <g
       id="g4559"
       transform="translate(-110.56854,-2.686292)">
      <path
         style="fill:#ff2a2a;fill-rule:evenodd;stroke:none;stroke-width:1px;stroke-linecap:butt;stroke-linejoin:miter;stroke-opacity:1"
         d="m 514.77374,699.13719 -42.93615,9.98351 -47.25069,-4.35892 -23.50306,-11.52189 -14.74794,-11.16297 -1.76227,-3.16837 c -0.93704,-4.2132 -2.81112,10.04979 -3.74816,-13.95118 l 11.56621,-11.10369 15.56613,2.35892 11.8809,6.50439 c 6.39287,1.71643 12.50997,5.86607 23.44016,9.6017 0,0 12.391,-0.81305 19.49592,-0.61415 l 15.99971,-2.05386 5.99988,-4.71785 z"
         id="path4470"
         inkscape:connector-curvature="0"
         sodipodi:nodetypes="ccccccccccccccc" />
      <path
         style="fill:#ff0000;fill-rule:evenodd;stroke:none;stroke-width:1px;stroke-linecap:butt;stroke-linejoin:miter;stroke-opacity:1"
         d="m 813,691 11,12 9,12 5,12 8,16 9,7 5,2 8,1 9,-2 4,-4 1,-6 0,-7 -3,-11 -8,-16 -7,-12 -8,-12 -9,-17 -36,25 z"
         id="path4474"
         inkscape:connector-curvature="0"
         sodipodi:nodetypes="ccccccccccccccccccc" />
      <g
         id="g4421">
        <path
           inkscape:connector-curvature="0"
           id="path4393"
           d="m 677.05474,908.22152 1.41422,20.15254 3.88908,10.6066 11.66726,17.32412 9.19239,7.07107 14.84924,8.13173 14.14214,2.12132 10.6066,-2.82843 1.76777,-5.65685 -3.18198,-5.65686 -4.5962,-5.65685 -5.3033,-5.3033 -4.59619,-8.13173 -3.88909,-8.83884 -2.12132,-10.6066 -0.7071,-10.96015 -0.35356,-5.65686 0,-2.12132 -42.07285,1.41422 z"
           style="fill:#ff2a2a;fill-rule:evenodd;stroke:none;stroke-width:1px;stroke-linecap:butt;stroke-linejoin:miter;stroke-opacity:1" />
        <path
           inkscape:connector-curvature="0"
           id="path4391"
           d="m 643.82073,905.39309 -0.35355,7.77817 -3.88909,19.44544 -5.3033,13.78858 -9.19239,11.31371 -15.9099,11.66726 -14.14213,6.01041 -12.72793,-0.70711 -6.0104,-3.18198 -0.70711,-3.88908 0.35355,-4.24265 8.83884,-9.89949 7.42462,-11.31371 4.94975,-13.43503 1.06066,-12.02081 0.7071,-6.36396 -0.35355,-6.36396 z"
           style="fill:#ff2a2a;fill-rule:evenodd;stroke:none;stroke-width:1px;stroke-linecap:butt;stroke-linejoin:miter;stroke-opacity:1" />
        <g
           transform="translate(99.348502,149.90664)"
           id="g4409">
          <path
             style="fill:#ff2a2a;fill-rule:evenodd;stroke:none;stroke-width:1px;stroke-linecap:butt;stroke-linejoin:miter;stroke-opacity:1"
             d="m 449.71991,666.74456 -8.48528,3.88908 -10.96016,1.76777 -18.03122,0 -15.55635,-3.88909 -13.78858,-7.42462 -14.84924,-12.37437 -7.07107,-10.6066 -9.54594,-16.26346 -10.6066,-13.78858 -11.31371,-8.83883 -10.25305,-7.07107 -21.2132,-6.01041 -8.48528,1.41422 -3.88909,2.12132 -4.24264,4.59619 1.76776,6.01041 7.42463,7.42462 14.14213,10.25305 10.96016,12.72792 13.08147,18.73833 6.36396,15.55635 9.19239,20.15254 6.36396,9.19239 8.13173,8.83883 23.33452,16.61701 27.93072,8.48528 25.10229,1.06066 24.04163,-4.24264 24.04163,-9.89949 19.79899,-8.48528 z"
             id="path4367"
             inkscape:connector-curvature="0" />
          <path
             style="fill:#ffd5d5;fill-rule:evenodd;stroke:none;stroke-width:1px;stroke-linecap:butt;stroke-linejoin:miter;stroke-opacity:1"
             d="m 452.19479,685.12933 4.59619,-2.47487 0.70711,-5.3033 -4.5962,-3.53554 -4.59619,0.35356 -4.24264,1.41421 -1.06066,4.94975 3.53553,3.88908 z"
             id="path4369"
             inkscape:connector-curvature="0" />
          <path
             style="fill:#ffd5d5;fill-rule:evenodd;stroke:none;stroke-width:1px;stroke-linecap:butt;stroke-linejoin:miter;stroke-opacity:1"
             d="m 429.21381,689.01842 2.20971,-0.7955 1.32583,-0.61872 0.53033,-0.61871 c 0,0 0.88388,-0.7955 0.97227,-1.23744 0.0884,-0.44194 0.44194,-1.59099 0.44194,-1.59099 l -0.35355,-2.47487 -0.7955,-1.23744 -1.14904,-1.23744 -1.32583,-0.70711 -1.06066,-0.35355 -3.62392,-0.17678 -2.47488,0.61872 -2.12132,0.61872 -1.41421,1.23744 -1.14905,3.0052 0.44194,1.41422 c 0,0 0.70711,1.59099 0.97228,2.03293 0.26516,0.44194 2.29809,2.03293 2.29809,2.03293 l 1.94455,0.61872 3.0052,-0.17678 z"
             id="path4371"
             inkscape:connector-curvature="0" />
          <path
             style="fill:#ffd5d5;fill-rule:evenodd;stroke:none;stroke-width:1px;stroke-linecap:butt;stroke-linejoin:miter;stroke-opacity:1"
             d="m 407.2935,688.75325 2.2981,-1.41421 1.06066,-0.97227 c 0,0 0.35356,-1.23744 0.44194,-1.59099 0.0884,-0.35356 0.0884,-2.82843 0.0884,-2.82843 l -1.67938,-2.47487 -1.59099,-1.06066 c 0,0 -1.41421,-0.26517 -2.12132,-0.26517 -0.7071,0 -2.82842,0 -3.27037,0 -0.44194,0 -1.85615,-0.0884 -1.85615,-0.0884 0,0 -1.32583,1.06066 -2.03293,1.32583 -0.70711,0.26516 -2.2981,1.76776 -2.2981,1.76776 l -0.44194,1.76777 0.0884,1.85617 0.79549,1.85615 1.76777,1.41422 2.74004,0.97227 2.82842,0.26516 2.38649,-0.17677 z"
             id="path4373"
             inkscape:connector-curvature="0" />
          <path
             style="fill:#ffd5d5;fill-rule:evenodd;stroke:none;stroke-width:1px;stroke-linecap:butt;stroke-linejoin:miter;stroke-opacity:1"
             d="m 378.30213,679.2957 4.15425,0.26516 2.12132,-1.06066 1.5026,-0.88388 0.97227,-0.97227 0.53033,-1.5026 0.17678,-1.85616 -0.88388,-1.67938 -1.32583,-1.76776 -1.32582,-0.97228 -0.97228,-0.44194 -2.65165,-0.17677 -2.29809,-0.0884 -1.76777,0.79549 -1.85616,0.88389 -1.32582,1.41421 -0.7955,1.94454 0,2.38649 1.67938,2.20971 2.47488,1.41421 z"
             id="path4375"
             inkscape:connector-curvature="0" />
          <path
             style="fill:#ffd5d5;fill-rule:evenodd;stroke:none;stroke-width:1px;stroke-linecap:butt;stroke-linejoin:miter;stroke-opacity:1"
             d="m 363.98321,665.50712 3.18199,-1.06066 2.29809,-1.59099 0.97227,-1.5026 0.44195,-1.94455 -0.26517,-2.12132 -2.38648,-2.20971 -3.0936,-1.23743 -2.20971,-0.0884 -3.44714,0.79549 -2.38649,1.76777 -0.88388,1.85615 0,1.94455 0.61872,1.94454 2.20971,2.12132 2.03293,0.61872 2.20971,0.7955 z"
             id="path4379"
             inkscape:connector-curvature="0" />
          <path
             style="fill:#f4d7d7;fill-rule:evenodd;stroke:none;stroke-width:1px;stroke-linecap:butt;stroke-linejoin:miter;stroke-opacity:1"
             d="m 351.78562,648.44817 3.00521,-0.17678 1.94454,-1.32583 1.59099,-1.94454 0.44194,-2.91681 -0.7071,-2.20971 -1.59099,-1.50261 -1.94455,-0.61871 -4.68458,-0.61872 -3.09359,0.7071 -2.20971,1.67938 -0.97227,2.2981 0.26516,2.38649 1.5026,1.76776 2.47488,1.41422 2.56326,1.06066 z"
             id="path4381"
             inkscape:connector-curvature="0" />
          <path
             style="fill:#ffd5d5;fill-rule:evenodd;stroke:none;stroke-width:1px;stroke-linecap:butt;stroke-linejoin:miter;stroke-opacity:1"
             d="m 336.40605,630.06339 2.82843,0.35355 2.03293,-0.17677 2.03293,-0.26517 1.59099,-0.53033 1.5026,-1.23744 0.7955,-1.67937 0.44194,-1.85616 -0.53033,-2.65165 -2.20971,-2.12132 -2.20971,-0.79549 -2.74004,-0.17678 -2.56326,0.17678 -1.67938,0.88388 -1.76776,1.14905 -1.23744,1.59099 -0.0884,1.59099 10e-6,2.47487 2.20971,2.12132 z"
             id="path4383"
             inkscape:connector-curvature="0" />
          <path
             style="fill:#f4d7d7;fill-rule:evenodd;stroke:none;stroke-width:1px;stroke-linecap:butt;stroke-linejoin:miter;stroke-opacity:1"
             d="m 325.35751,614.77221 3.44714,0.26516 1.67938,-0.44194 2.2981,-0.97227 2.20971,-2.12132 0.26516,-3.09359 -0.26516,-1.67938 -1.50261,-1.76777 -1.67937,-0.7955 -2.65165,-0.79549 -3.18198,-0.17678 -2.91682,0.97227 -1.41421,1.06066 -0.7955,1.85616 -0.53033,2.20971 0.70711,2.65165 1.41421,1.59099 1.32583,0.70711 z"
             id="path4385"
             inkscape:connector-curvature="0" />
          <path
             style="fill:#ffd5d5;fill-rule:evenodd;stroke:none;stroke-width:1px;stroke-linecap:butt;stroke-linejoin:miter;stroke-opacity:1"
             d="m 305.73529,602.39784 3.0936,0.61872 2.29809,-0.53033 2.65165,-1.67938 1.14905,-2.12132 0.26517,-2.82843 -0.70711,-1.94454 -2.38649,-1.94455 -2.2097,-0.97227 -2.03294,0 -1.85615,0.17678 -2.56326,0.7071 -1.50261,1.67938 -1.14904,2.03293 -0.61872,1.76777 0.17677,1.85616 1.59099,1.59099 1.76777,1.5026 z"
             id="path4387"
             inkscape:connector-curvature="0" />
        </g>
        <g
           transform="translate(62.894444,117.3381)"
           id="g4333">
          <path
             style="fill:#ffffff;fill-rule:evenodd;stroke:#000000;stroke-width:1px;stroke-linecap:butt;stroke-linejoin:miter;stroke-opacity:1"
             d="m 721.24891,508.70619 51.26525,25.45584 -49.14393,37.12311 -16.26345,-11.66726 9.89949,89.09545 -242.53762,1.06066 7.07107,-87.32769 -14.14214,8.48529 -51.61879,-35.00179 47.7297,-24.39518 z"
             id="path3480"
             inkscape:connector-curvature="0" />
          <g
             id="g3441"
             transform="translate(-50.911688,-149.90663)"
             style="stroke:none">
            <path
               sodipodi:nodetypes="cccccccssccccccscccccccccccccccccccccccccccccccccccccccccccccccccccccccccccccccccccccccccccccccsccscccccccccccccccccccccccccccccccccccccccccccccccccccccccccccccccccccccccccccccccccccccccccccccccccccccccccccccccccccccccccccccccccc"
               inkscape:connector-curvature="0"
               id="path3346"
               d="m 711.9371,662.0025 3.83019,-0.39623 2.90566,-0.26415 4.22641,-0.39622 4.22642,-0.5283 10.96226,-1.84906 4.22642,-0.66038 c 0,0 -1.32076,0.13208 8.5849,-1.98113 9.90566,-2.11321 10.43396,-1.98113 21.66038,-5.01887 11.22641,-3.03773 29.32075,-9.37736 29.32075,-9.37736 l 11.8868,-5.28302 13.33962,-7.13207 8.2273,-5.81132 c 19.96009,-7.82804 0,0 25.05572,-19.54717 l 8.5849,-9.50944 c 0,0 3.43396,-4.22641 7.5283,-9.90566 4.09434,-5.67924 8.98114,-15.32075 8.98114,-15.32075 l 4.88679,-10.30189 1.71698,-4.35849 7.5283,-0.39622 6.86793,0.26415 7,0.5283 3.25966,0 5.25921,0.26415 4.68867,0.066 4.09434,0.19811 3.89623,0.46226 3.63208,0.33019 4.29245,0.13208 4.62264,0.33019 7.13208,0.79245 5.01886,0.33019 4.42453,0.66038 3.69812,0.39622 4.0283,0.59434 3.76415,0.26415 3.36792,0.5283 3.36793,0.52831 3.69811,0.39622 3.63208,0.46227 7.85849,1.12264 5.74528,0.66038 5.6792,0.99056 4.1604,0.46227 5.6132,0.92452 5.0849,0.85849 4.5566,0.8585 5.0849,1.18867 6.4057,1.12265 5.5471,1.25471 4.0944,0.92453 6.1415,1.38679 5.0849,1.12265 5.1509,1.25471 6.0094,1.25472 6.0755,1.45283 6.0755,1.78302 4.6886,1.32075 3.2359,0.79246 4.9528,1.45283 5.6132,1.84905 1.7831,0.59434 -0.066,-3.10377 -51.5754,-13.80189 -39.7547,-7.33019 -26.94339,-4.09434 -45.10377,-5.21698 -45.83019,-2.17924 -0.66038,-0.19812 1.05661,-3.23585 4.62264,-15.12264 0.66038,-0.59434 31.23584,-0.66037 29.18868,0 22.3868,0.66037 23.31128,1.18868 18.2264,1.65095 8.0567,0.39622 16.2452,2.11321 12.6792,1.51887 7.9906,1.0566 15.4528,2.83962 11.0943,1.98114 8.5849,1.91509 1.3736,-3.28086 -49.1238,-8.40523 -37.1698,-4.10923 -30.6324,-2.24139 -54.54062,-1.30748 -33.8077,0.74713 4.66957,-20.35934 2.70297,-20.47756 1.05661,-13.33962 1.0566,-15.84906 0.79245,-41.4717 c 0,0 -0.26415,-11.22641 -0.92452,-16.50943 -0.66038,-5.28302 -3.16982,-22.71698 -3.16982,-22.71698 l -5.67924,-22.84906 c 0,0 -1.45283,-4.88679 -4.75472,-13.20755 -3.30189,-8.32075 -15.32075,-31.03773 -15.32075,-31.03773 l -21.13208,-27.33963 -0.26415,-0.79245 2.50943,-12.41509 2.11321,-16.90566 1.05661,-11.49057 -0.66038,-11.88679 -0.66038,-10.56604 -0.79245,-10.30189 -3.96227,-21.39622 -3.03773,-10.56604 -4.09434,-14 -5.44858,-1.45994 -9.60803,0 -8.71698,1.06371 -8.84905,1.98113 -13.4717,4.22642 -13.73585,5.81132 -15.32075,7.13208 -12.54717,7.79245 -13.73585,8.84906 -16.37736,11.35849 -2.77359,0.13207 -13.33962,-3.43396 -13.20755,-2.64151 -14.66037,-2.64151 -15.58491,-1.98113 -13.4717,-0.92453 -13.60377,-0.92453 -30.50944,0 -22.45283,1.32076 -17.30188,1.84905 -15.84906,2.77359 -12.9434,2.50943 -12.41509,3.16981 -13.20755,3.83019 -1.32075,0.66038 -21.26415,-16.24528 -15.71698,-9.24529 -33.4151,-17.16981 -20.20755,-6.73585 -14.92452,-2.77358 -10.43397,-0.13208 -6.07547,1.05661 -4.49056,15.71698 -4.22642,17.16981 -1.71698,13.07547 -1.84906,17.83019 -0.5283,17.56604 1.32076,15.5849 2.1132,12.01887 1.71698,7.26415 2.64151,8.98113 0.92453,3.83019 -6.20755,7.92453 -6.07547,8.45283 -6.33962,10.03774 -4.09434,7.26415 -4.49057,8.84905 -3.69811,8.32076 -3.30189,8.5849 -3.43396,11.22642 -3.30188,10.96226 -1.84906,9.50944 -1.18868,10.83019 -1.71698,11.62264 0,8.98113 -0.39623,8.58491 0.26415,9.37735 0.13208,6.4717 0.13207,8.71698 0.66038,7 0.92453,10.69812 0.66038,7.13207 1.18868,9.50944 1.5849,8.98113 3.43396,18.75472 2.64151,9.37735 1.98114,7.39623 0.66037,2.90566 -10.69811,0 -24.56604,-1.0566 -21.92453,0.39622 -38.43396,1.58491 -26.54717,2.24528 -12.15094,1.45283 -21.26415,2.50944 -21,3.43396 -23.50944,4.35849 0.39623,4.22641 19.41509,-4.35849 24.16982,-3.56603 32.22641,-4.35849 25.22642,-2.24529 28.5283,-0.92453 26.41509,-0.92452 26.28302,0.39622 18.62264,0.13208 3.56604,10.16981 4.49057,9.64151 -17.43397,0.26415 -27.86792,1.98113 -26.41509,2.77359 -23.64151,2.64151 -24.83019,4.22641 -28.52831,5.28302 -34.60377,7.92453 -24.16981,6.86792 0.13207,4.09434 21.66038,-6.4717 29.71698,-7.26415 31.56604,-6.33962 29.58491,-4.75472 33.67924,-4.09434 26.15095,-1.98113 17.56603,-1.18868 18.8868,-0.66037 6.20754,11.49056 10.83019,16.50944 10.03774,12.28301 11.35849,11.22642 11.62264,9.50943 20.4717,13.20755 15.71698,7.66038 16.37736,7.39622 25.49056,7.66038 23.90566,5.9434 23.50944,3.83019 78.9149,2.7941 z"
               style="fill:#ff5555;fill-rule:evenodd;stroke:none;stroke-width:1px;stroke-linecap:butt;stroke-linejoin:miter;stroke-opacity:1" />
            <path
               inkscape:connector-curvature="0"
               id="path3350"
               d="m 448.44653,587.51194 c 0,0 -2.95591,-2.39153 -7.99905,-11.35711 -5.04314,-8.96558 -9.05897,-18.49151 -9.05897,-18.49151 l -5.22993,-16.15672 -2.24139,-13.35498 -1.86783,-18.95847 -0.46696,-11.9541 0.65374,-9.24576 1.77444,-12.51445 c 0,0 0.56035,-2.89514 2.98853,-9.8995 2.42818,-7.00436 6.5374,-14.94263 6.5374,-14.94263 l 2.89513,-5.41671 4.94975,-8.03166 5.32332,-7.09775 7.09775,-8.03167 6.44401,-6.63079 5.88366,-4.85636 7.6581,-4.85636 7.47132,-3.45548 11.11358,-3.64227 10.64663,-2.24139 8.03166,-0.93392 8.12506,-0.65374 17.93116,-0.28017 10.74002,0.56035 7.19114,0.46695 8.59202,0.28018 5.04313,0.65374 9.15237,0.56035 22.41395,1.58765 14.66246,0.46696 16.15672,0.46696 19.51882,-0.18679 10.55323,-0.37356 13.82194,-0.93392 7.6581,-0.65374 10.9268,-0.74713 10.74002,-0.93391 9.05897,-0.56035 14.1955,-0.65374 18.02455,-0.0934 10.83341,0.84052 7.19115,0.93391 8.49862,1.86783 8.6854,2.61496 8.96559,3.82905 c 0,0 3.2687,0.93392 7.47131,4.29601 4.20262,3.36209 9.52593,7.93828 9.52593,7.93828 l 5.22992,5.88366 4.66958,5.32331 5.88366,7.09775 4.10922,6.35062 8.03167,14.47568 5.32331,14.10211 2.42818,10.83341 1.1207,8.21845 0,17.18403 -0.65374,12.98141 -0.46696,8.87219 -0.93392,6.91097 -4.20261,16.06333 -2.42818,9.52593 -3.2687,7.56471 -3.82905,9.61932 -2.33479,3.82905 -8.31184,11.76732 -2.70835,3.64227 -6.5374,6.91097 -7.84488,6.16383 -3.17531,2.52157 -10.55324,6.16384 -12.60785,5.97705 -13.0748,4.48279 -9.52593,2.61496 -12.88802,2.98853 -10.9268,1.68105 -13.07481,1.12069 -12.70124,1.40088 -12.14089,0.56034 -27.83065,0.28018 -22.32056,0.93391 -23.16108,-0.0934 -35.67554,-1.58765 -14.66246,-1.30748 -13.26159,-1.49427 -36.05911,-7.56137 -23.5113,-8.66206 c 0,0 -5.12653,-1.23743 -12.55115,-6.0104 -7.42462,-4.77297 -18.73833,-13.78858 -18.73833,-13.78858 l -10.07627,-9.36915 z"
               style="fill:#fff6d5;fill-rule:evenodd;stroke:none;stroke-width:1px;stroke-linecap:butt;stroke-linejoin:miter;stroke-opacity:1" />
            <path
               inkscape:connector-curvature="0"
               id="path3352"
               d="m 478.65063,478.53803 -2.12132,14.31891 -0.53033,17.14734 0.70711,11.13694 5.83363,20.15254 6.18718,12.02081 10.25305,12.37437 9.19239,5.3033 7.6014,2.12132 5.65685,0.35356 5.90509,-0.89858 7,-3 5.625,-3.75 4.875,-5.375 c 0,0 4.625,-4.875 5.75,-6.875 1.125,-2 2.25,-4.25 3.75,-7.375 1.5,-3.125 3.875,-9 3.875,-9 l 2.25,-6 0.75,-3.5 1.25,-6.875 0.875,-10.625 0.125,-5.75 0.125,-9.5 -1.125,-8.25 -2.625,-10.75 c 0,0 -2.375,-6.625 -3.875,-10.75 -1.5,-4.125 -2.75,-6.75 -4.25,-9.125 -1.5,-2.375 -5.75,-6.875 -5.75,-6.875 l -4.625,-5.125 c 0,0 -1.625,-2.125 -4.75,-4.125 -3.125,-2 -6.75,-3.75 -6.75,-3.75 0,0 -1.625,-1.375 -9,-1.375 -7.375,0 -11.5,1 -11.5,1 l -6.75,3.75 -5.75,4.75 -6.125,6.75 -4.75,7.625 -3.375,7.375 -2.375,6.25 z"
               style="fill:#ffffff;fill-rule:evenodd;stroke:none;stroke-width:1px;stroke-linecap:butt;stroke-linejoin:miter;stroke-opacity:1" />
            <path
               inkscape:connector-curvature="0"
               id="path3354"
               d="m 513.33568,459.31854 -7.375,4.25 -6.375,7.125 -7.25,13.875 -2.375,14.375 0.125,13 0.5,7 1.625,7.25 5.625,11 6.375,8.5 7.5,4.75 5.25,1.75 6.625,-0.125 c 0,0 2.25,0.125 6.875,-3.5 4.625,-3.625 8.75,-9 8.75,-9 l 2.875,-5 3.375,-8.125 1.875,-8.5 0.5,-12.25 -0.25,-10.25 -2,-8.625 c 0,0 -1.625,-7.375 -2,-8 -0.375,-0.625 -4.875,-8.375 -4.875,-8.375 l -5.25,-5.625 -7.875,-4.75 -6.875,-0.875 -5.875,0.25 z"
               style="fill:#000000;fill-rule:evenodd;stroke:none;stroke-width:1px;stroke-linecap:butt;stroke-linejoin:miter;stroke-opacity:1" />
            <path
               style="fill:#ffffff;fill-rule:evenodd;stroke:none;stroke-width:1px;stroke-linecap:butt;stroke-linejoin:miter;stroke-opacity:1"
               d="m 713.65063,479.53803 -2.12132,14.31891 -0.53033,17.14734 0.70711,11.13694 5.83363,20.15254 6.18718,12.02081 10.25305,12.37437 9.19239,5.3033 7.6014,2.12132 5.65685,0.35356 5.90509,-0.89858 7,-3 5.625,-3.75 4.875,-5.375 c 0,0 4.625,-4.875 5.75,-6.875 1.125,-2 2.25,-4.25 3.75,-7.375 1.5,-3.125 3.875,-9 3.875,-9 l 2.25,-6 0.75,-3.5 1.25,-6.875 0.875,-10.625 0.125,-5.75 0.125,-9.5 -1.125,-8.25 -2.625,-10.75 c 0,0 -2.375,-6.625 -3.875,-10.75 -1.5,-4.125 -2.75,-6.75 -4.25,-9.125 -1.5,-2.375 -5.75,-6.875 -5.75,-6.875 l -4.625,-5.125 c 0,0 -1.625,-2.125 -4.75,-4.125 -3.125,-2 -6.75,-3.75 -6.75,-3.75 0,0 -1.625,-1.375 -9,-1.375 -7.375,0 -11.5,1 -11.5,1 l -6.75,3.75 -5.75,4.75 -6.125,6.75 -4.75,7.625 -3.375,7.375 -2.375,6.25 z"
               id="path3358"
               inkscape:connector-curvature="0" />
            <path
               style="fill:#000000;fill-rule:evenodd;stroke:none;stroke-width:1px;stroke-linecap:butt;stroke-linejoin:miter;stroke-opacity:1"
               d="m 749.83568,459.19354 -7.375,4.25 -6.375,7.125 -7.25,13.875 -2.375,14.375 0.125,13 0.5,7 1.625,7.25 5.625,11 6.375,8.5 7.5,4.75 5.25,1.75 6.625,-0.125 c 0,0 2.25,0.125 6.875,-3.5 4.625,-3.625 8.75,-9 8.75,-9 l 2.875,-5 3.375,-8.125 1.875,-8.5 0.5,-12.25 -0.25,-10.25 -2,-8.625 c 0,0 -1.625,-7.375 -2,-8 -0.375,-0.625 -4.875,-8.375 -4.875,-8.375 l -5.25,-5.625 -7.875,-4.75 -6.875,-0.875 -5.875,0.25 z"
               id="path3356"
               inkscape:connector-curvature="0" />
            <path
               inkscape:connector-curvature="0"
               id="path3360"
               d="m 632.83568,578.31854 -4.75,-2.25 -3.5,-3.625 -1.375,-2.375 0.5,-3.75 -0.5,-3.5 c 0,0 0.125,-1.75 3.125,-4.625 3,-2.875 5.5,-4.5 5.5,-4.5 0,0 -1.125,0.25 2.25,0.25 3.375,0 5.75,1 7,2.25 1.25,1.25 3.375,5 3.375,5 l 0.25,5.875 -0.625,4.375 c 0,0 -2.875,4 -3.75,4.625 -0.875,0.625 -4.75,1.75 -4.75,1.75 z"
               style="fill:#000000;fill-rule:evenodd;stroke:none;stroke-width:1px;stroke-linecap:butt;stroke-linejoin:miter;stroke-opacity:1" />
            <path
               inkscape:connector-curvature="0"
               id="path3362"
               d="m 638.33568,608.69354 c 0,0 3.75,-1.375 7.75,-3.75 4,-2.375 4.75,-5.25 6.5,-8.5 1.75,-3.25 0.75,-3.625 0.75,-3.625 l 2.5,-1.875 c 0,0 -0.375,-0.5 1.125,0 1.5,0.5 2.25,1.5 2.25,2 0,0.5 0,4.875 0,4.875 l -2.75,5 -3,4.75 -6.25,4.75 -5.625,3.25 -6.75,1 c 0,0 -4.75,-0.125 -6.875,-0.75 -2.125,-0.625 -2.125,-0.625 -2.125,-0.625 l -3.875,-2.125 -6.5,-4.5 -4.375,-5.25 -2.375,-5.5 -0.125,-4.125 2.125,-2.125 c 0,0 1.25,-1 2.375,-0.375 1.125,0.625 2.5,3 2.5,3 l 0.875,3.875 3,4.125 3.5,2.75 4.125,2.75 3.25,1.125 4.125,0.125 z"
               style="fill:#000000;fill-rule:evenodd;stroke:none;stroke-width:1px;stroke-linecap:butt;stroke-linejoin:miter;stroke-opacity:1" />
            <path
               inkscape:connector-curvature="0"
               id="path3364"
               d="M 638.21068,608.69354 Z"
               style="fill:none;fill-rule:evenodd;stroke:none;stroke-width:1px;stroke-linecap:butt;stroke-linejoin:miter;stroke-opacity:1" />
          </g>
          <path
             style="fill:#000080;fill-rule:evenodd;stroke:none;stroke-width:1px;stroke-linecap:butt;stroke-linejoin:miter;stroke-opacity:1"
             d="m 470.22601,506.58487 -9.8995,0.70711 1.76777,2.47487 125.51145,43.84062 6.01041,1.76777 -25.8094,-42.42641 z"
             id="path3474"
             inkscape:connector-curvature="0" />
          <path
             style="fill:#000080;fill-rule:evenodd;stroke:none;stroke-width:1px;stroke-linecap:butt;stroke-linejoin:miter;stroke-opacity:1"
             d="m 617.30422,513.30238 -20.15255,42.42641 124.80435,-48.43681 3.18198,-1.76777 -13.08147,-2.12132 z"
             id="path3476"
             inkscape:connector-curvature="0" />
          <path
             style="fill:none;fill-rule:evenodd;stroke:#000000;stroke-width:1px;stroke-linecap:butt;stroke-linejoin:miter;stroke-opacity:1"
             d="m 608.46538,556.4359 c 0,0 2.12132,-1.41422 -13.43503,-0.70711 -15.55634,0.70711 -16.97056,0.70711 -16.97056,0.70711 l 1.41422,14.84924 29.34493,0.35355 z"
             id="path3478"
             inkscape:connector-curvature="0" />
          <path
             style="fill:#aa0000;fill-rule:evenodd;stroke:none;stroke-width:1px;stroke-linecap:butt;stroke-linejoin:miter;stroke-opacity:1"
             d="m 523.61257,532.04071 13.43502,21.56676 13.78859,8.48528 40.65864,-7.07107 z"
             id="path3482"
             inkscape:connector-curvature="0" />
          <path
             style="fill:#aa0000;fill-rule:evenodd;stroke:none;stroke-width:1px;stroke-linecap:butt;stroke-linejoin:miter;stroke-opacity:1"
             d="m 669.27657,528.15163 -5.65685,19.44543 c 0,0 -6.36397,9.19239 -10.96016,11.66726 -4.59619,2.47488 -14.14214,3.18198 -14.14214,3.18198 l -26.16295,-5.3033 -4.94974,-0.35355 -0.35356,-1.76777 -4.94974,-0.35355 z"
             id="path3484"
             inkscape:connector-curvature="0" />
          <path
             style="fill:#aa0000;fill-rule:evenodd;stroke:none;stroke-width:1px;stroke-linecap:butt;stroke-linejoin:miter;stroke-opacity:1"
             d="m 605.99051,572.3458 c 0,0 6.71751,-1.06066 4.59619,7.42462 -2.12132,8.48528 -18.73833,35.00178 -18.73833,35.00178 l -13.43503,14.49569 -10.96015,-20.50609 c 0,0 1.06066,-16.26346 1.41421,-20.5061 0.35355,-4.24264 12.37437,-17.32412 12.37437,-17.32412 z"
             id="path3486"
             inkscape:connector-curvature="0" />
          <path
             style="fill:#aa0000;fill-rule:evenodd;stroke:none;stroke-width:1px;stroke-linecap:butt;stroke-linejoin:miter;stroke-opacity:1"
             d="m 609.54018,573.05291 11.83697,11.31371 2.29103,19.44544 -5.72756,17.32411 -3.81839,4.5962 -15.65534,-12.72792 -3.43654,-1.41422 z"
             id="path3488"
             inkscape:connector-curvature="0" />
          <path
             style="fill:#000080;fill-rule:evenodd;stroke:none;stroke-width:1px;stroke-linecap:butt;stroke-linejoin:miter;stroke-opacity:1"
             d="m 773.92837,533.10137 -51.26524,37.83022 20.15254,13.08147 49.85103,-34.29468 1.76777,-7.42462 z"
             id="path3490"
             inkscape:connector-curvature="0" />
          <path
             style="fill:#000080;fill-rule:evenodd;stroke:none;stroke-width:1px;stroke-linecap:butt;stroke-linejoin:miter;stroke-opacity:1"
             d="m 414.36457,534.51559 -21.2132,12.37437 53.033,38.18376 22.62742,-12.37437 z"
             id="path3492"
             inkscape:connector-curvature="0" />
          <path
             style="fill:#000080;fill-rule:evenodd;stroke:none;stroke-width:1px;stroke-linecap:butt;stroke-linejoin:miter;stroke-opacity:1"
             d="m 488.61078,649.18821 -55.86143,132.58252 30.75914,1.41421 2.82843,4.24264 31.46625,-0.70711 6.36396,2.82843 33.23402,0.35355 8.13173,1.06066 29.69848,-2.12132 4.94975,1.76777 35.70889,-0.35355 4.24264,-1.76777 26.51651,1.06066 9.19239,-1.41421 30.40559,1.06066 4.59619,-2.12132 29.69849,-0.35356 3.88908,-2.82842 32.52692,-2.12132 -59.04342,-133.99674 z"
             id="path3494"
             inkscape:connector-curvature="0" />
        </g>
        <path
           inkscape:connector-curvature="0"
           id="path4377"
           d="m 380.42345,668.24716 c -0.44194,0 0,0 0,0 z"
           style="fill:none;fill-rule:evenodd;stroke:none;stroke-width:1px;stroke-linecap:butt;stroke-linejoin:miter;stroke-opacity:1" />
      </g>
    </g>
  </g>
</svg>
